Genre:Thriller
 Language:English
  
http://www.imdb.com/title/tt1219289/
 
Source:Russian DVD-9/CM8 Thx.
 
Format : MPEG-4
 Format profile : Base Media
 Codec ID : isom
 File size : 1.36 GiB
 Duration : 1h 40mn
 Overall bit rate : 1 935 Kbps
 
Video
 ID : 1
 Format : AVC
 Format/Info : Advanced Video Codec
 Format profile : High@L4.1
 Format settings, CABAC : Yes
 Format settings, ReFrames : 3 frames
 Codec ID : avc1
 Codec ID/Info : Advanced Video Coding
 Duration : 1h 40mn
 Bit rate mode : Variable
 Bit rate : 1 500 Kbps
 Maximum bit rate : 7 084 Kbps
 Width : 720 pixels
 Height : 304 pixels
 Display aspect ratio : 2.35:1
 Frame rate mode : Constant
 Frame rate : 25.000 fps
 Color space : YUV
 Chroma subsampling : 4:2:0
 Bit depth : 8 bits
 Scan type : Progressive
 Bits/(Pixel*Frame) : 0.274
 Stream size : 1.05 GiB (77%)
 Writing library : x264
 
Audio
 ID : 2
 Format : AAC
 Format/Info : Advanced Audio Codec
 Format version : Version 4
 Format profile : LC
 Format settings, SBR : No
 Codec ID : 40
 Duration : 1h 40mn
 Bit rate mode : Variable
 Bit rate : 438 Kbps
 Maximum bit rate : 558 Kbps
 Channel(s) : 6 channels
 Channel positions : Front: L C R, Side: L R, LFE
 Sampling rate : 48.0 KHz
 Stream size : 315 MiB (23%)
 

Plot:
 A writer discovers a top-secret drug which bestows him with super human abilities
 